<?xml version="1.0" standalone="no"?>
<!DOCTYPE svg PUBLIC "-//W3C//DTD SVG 20010904//EN"
 "http://www.w3.org/TR/2001/REC-SVG-20010904/DTD/svg10.dtd">
<svg version="1.0" xmlns="http://www.w3.org/2000/svg"
 width="1280.000000pt" height="907.000000pt" viewBox="0 0 1280.000000 907.000000"
 preserveAspectRatio="xMidYMid meet">

<g transform="translate(0.000000,907.000000) scale(0.100000,-0.100000)"
fill="#000000" stroke="none">
<path d="M6220 8903 c-293 -17 -758 -72 -1035 -124 -598 -111 -1017 -224
-1750 -474 -1112 -379 -1453 -484 -1790 -549 -206 -39 -299 -47 -632 -53 -276
-5 -313 -8 -317 -22 -22 -69 -47 -392 -62 -778 l-6 -173 23 0 c70 0 482 79
764 147 651 155 1244 327 2225 646 975 317 1240 386 1851 481 344 54 465 67
709 76 966 33 2248 -175 3475 -565 578 -184 1207 -363 1440 -410 175 -36 843
-36 1116 0 133 17 322 74 424 128 56 30 60 34 58 66 -3 71 -212 452 -303 552
l-45 50 -130 -30 c-610 -140 -1105 -79 -2155 269 -1310 433 -2435 704 -3154
760 -116 9 -569 11 -706 3z"/>
<path d="M6240 7639 c-417 -33 -809 -99 -1275 -215 -333 -83 -526 -134 -1600
-419 -222 -59 -338 -90 -690 -182 -502 -131 -1593 -401 -1968 -487 -81 -18
-149 -35 -151 -37 -2 -2 -6 -179 -8 -393 -3 -270 -1 -389 6 -392 6 -2 130 -26
276 -54 727 -138 1132 -247 1870 -503 854 -296 1319 -435 1890 -561 916 -203
1684 -264 2465 -196 261 23 700 36 760 23 50 -11 55 -34 22 -100 -133 -262
-852 -971 -1427 -1407 -1118 -849 -2312 -1429 -3310 -1610 -250 -46 -409 -60
-660 -60 -250 0 -361 10 -554 50 -366 77 -653 236 -846 469 -345 415 -392 956
-115 1307 107 136 299 250 493 292 44 10 50 -9 27 -96 -25 -97 -18 -203 20
-283 54 -113 170 -213 296 -255 52 -18 81 -21 155 -18 82 3 100 8 170 42 108
53 234 178 286 286 121 247 81 521 -105 717 -168 177 -431 302 -698 334 -549
64 -1104 -232 -1353 -721 -71 -139 -116 -281 -153 -475 -24 -127 -28 -436 -9
-578 60 -430 239 -805 525 -1101 195 -201 384 -331 626 -430 467 -190 1010
-239 1670 -151 1176 158 2532 767 3725 1673 341 259 694 554 1042 869 246 223
815 795 1008 1013 268 304 342 371 445 407 58 19 136 13 173 -14 67 -48 98
-183 88 -383 -13 -258 -58 -491 -206 -1055 -249 -953 -332 -1318 -374 -1640
-24 -179 -39 -526 -34 -799 4 -273 8 -292 61 -281 169 36 393 317 594 745 142
300 241 555 403 1035 109 322 155 438 232 585 166 318 341 459 680 547 54 15
98 31 98 38 0 7 -37 29 -82 50 -171 79 -300 146 -370 192 -143 93 -238 214
-273 348 -43 166 6 569 95 785 55 134 195 343 333 497 256 286 619 475 1177
612 206 51 361 79 712 131 153 22 284 43 292 46 11 4 2 33 -44 137 -153 349
-272 603 -288 615 -24 20 -167 9 -382 -27 -237 -41 -430 -55 -623 -47 -367 15
-628 68 -1037 207 -558 191 -661 226 -870 295 -1106 366 -1766 535 -2353 605
-198 24 -666 34 -857 18z m-590 -882 c0 -12 -7 -74 -16 -137 -21 -152 -15
-328 16 -425 40 -128 86 -202 185 -302 82 -81 104 -97 206 -147 162 -79 278
-106 487 -113 277 -10 449 27 635 135 68 40 186 148 229 209 124 181 172 424
134 682 -9 62 -14 116 -11 119 15 16 882 -165 1125 -235 547 -156 1192 -393
1548 -568 l185 -91 -94 -61 c-496 -320 -1287 -615 -2041 -762 -217 -43 -478
-79 -649 -91 -383 -26 -1553 -39 -1854 -20 -563 36 -1151 144 -1811 334 -274
79 -380 113 -1044 331 -228 74 -516 168 -640 207 -124 39 -229 74 -233 78 -5
4 9 11 30 14 142 26 1262 299 2053 501 363 93 1108 271 1330 319 91 19 174 37
185 39 39 9 45 7 45 -16z"/>
</g>
</svg>
